# xmcd CD database file
#
# Track frame offsets:
#	150
#	15395
#	33525
#	46100
#	60335
#	80000
#	95625
#	110033
#	127633
#	137330
#	151603
#	167440
#
# Disc length: 2464 seconds
#
# Revision: 2
# Processed by: cddbd v1.5.1PL2 Copyright (c) Steve Scherf et al.
# Submitted via: CDex 1.51
#
DISCID=81099e0c
DTITLE=Tish Hinojosa - Homeland
DYEAR=1989
DGENRE=Folk
TTITLE0=Joaquin
TTITLE1=West Side Of Town
TTITLE2=Donde Voy (Where I Go)
TTITLE3=In The Night
TTITLE4=Love Is On Our Side
TTITLE5=All My Love
TTITLE6=Till You Love Me Again
TTITLE7=Voice Of The Big Guitar
TTITLE8=Rancherita
TTITLE9=Who Showed You The Way To My Heart
TTITLE10=Let Me Remember
TTITLE11=Amanecer (Daybreak)
EXTD=YEAR: 1989
EXTT0=
EXTT1=
EXTT2=
EXTT3=
EXTT4=
EXTT5=
EXTT6=
EXTT7=
EXTT8=
EXTT9=
EXTT10=
EXTT11=
PLAYORDER=
